# Blender v2.78 (sub 0) OBJ File: ''
# www.blender.org
mtllib south.mtl
o Text_Mesh
v 0.399000 0.000000 -0.643000
v 0.386919 0.000000 -0.650667
v 0.374685 0.000000 -0.657667
v 0.362313 0.000000 -0.664000
v 0.349815 0.000000 -0.669667
v 0.337206 0.000000 -0.674667
v 0.324500 0.000000 -0.679000
v 0.311711 0.000000 -0.682667
v 0.298852 0.000000 -0.685667
v 0.285938 0.000000 -0.688000
v 0.272981 0.000000 -0.689667
v 0.259998 0.000000 -0.690667
v 0.247000 0.000000 -0.691000
v 0.216668 0.000000 -0.689539
v 0.188264 0.000000 -0.685227
v 0.161922 0.000000 -0.678172
v 0.137778 0.000000 -0.668482
v 0.115967 0.000000 -0.656263
v 0.096625 0.000000 -0.641625
v 0.079887 0.000000 -0.624674
v 0.065889 0.000000 -0.605519
v 0.054766 0.000000 -0.584266
v 0.046653 0.000000 -0.561023
v 0.041686 0.000000 -0.535899
v 0.040000 0.000000 -0.509000
v 0.045804 0.000000 -0.465641
v 0.061852 0.000000 -0.428380
v 0.086094 0.000000 -0.396187
v 0.116481 0.000000 -0.368037
v 0.150966 0.000000 -0.342900
v 0.187500 0.000000 -0.319750
v 0.224034 0.000000 -0.297558
v 0.258519 0.000000 -0.275296
v 0.288906 0.000000 -0.251937
v 0.313148 0.000000 -0.226454
v 0.329196 0.000000 -0.197817
v 0.335000 0.000000 -0.165000
v 0.334267 0.000000 -0.155325
v 0.332056 0.000000 -0.145435
v 0.328344 0.000000 -0.135531
v 0.323111 0.000000 -0.125815
v 0.316337 0.000000 -0.116487
v 0.308000 0.000000 -0.107750
v 0.298080 0.000000 -0.099804
v 0.286556 0.000000 -0.092852
v 0.273406 0.000000 -0.087094
v 0.258611 0.000000 -0.082731
v 0.242149 0.000000 -0.079966
v 0.224000 0.000000 -0.079000
v 0.207339 0.000000 -0.079726
v 0.190875 0.000000 -0.081889
v 0.174641 0.000000 -0.085469
v 0.158667 0.000000 -0.090444
v 0.142984 0.000000 -0.096795
v 0.127625 0.000000 -0.104500
v 0.112620 0.000000 -0.113538
v 0.098000 0.000000 -0.123889
v 0.083797 0.000000 -0.135531
v 0.070042 0.000000 -0.148444
v 0.056766 0.000000 -0.162608
v 0.044000 0.000000 -0.178000
v 0.044000 0.000000 -0.054000
v 0.058319 0.000000 -0.043727
v 0.072801 0.000000 -0.034403
v 0.087484 0.000000 -0.026016
v 0.102407 0.000000 -0.018556
v 0.117608 0.000000 -0.012012
v 0.133125 0.000000 -0.006375
v 0.148996 0.000000 -0.001634
v 0.165259 0.000000 0.002222
v 0.181953 0.000000 0.005203
v 0.199116 0.000000 0.007319
v 0.216785 0.000000 0.008582
v 0.235000 0.000000 0.009000
v 0.261866 0.000000 0.007403
v 0.287343 0.000000 0.002727
v 0.311250 0.000000 -0.004859
v 0.333407 0.000000 -0.015185
v 0.353634 0.000000 -0.028080
v 0.371750 0.000000 -0.043375
v 0.387574 0.000000 -0.060899
v 0.400926 0.000000 -0.080481
v 0.411625 0.000000 -0.101953
v 0.419491 0.000000 -0.125144
v 0.424343 0.000000 -0.149883
v 0.426000 0.000000 -0.176000
v 0.420196 0.000000 -0.225891
v 0.404148 0.000000 -0.267880
v 0.379906 0.000000 -0.303187
v 0.349519 0.000000 -0.333037
v 0.315034 0.000000 -0.358650
v 0.278500 0.000000 -0.381250
v 0.241966 0.000000 -0.402058
v 0.207482 0.000000 -0.422296
v 0.177094 0.000000 -0.443187
v 0.152852 0.000000 -0.465954
v 0.136804 0.000000 -0.491817
v 0.131000 0.000000 -0.522000
v 0.131922 0.000000 -0.533677
v 0.134625 0.000000 -0.544667
v 0.139016 0.000000 -0.554906
v 0.145000 0.000000 -0.564333
v 0.152484 0.000000 -0.572885
v 0.161375 0.000000 -0.580500
v 0.171578 0.000000 -0.587115
v 0.183000 0.000000 -0.592667
v 0.195547 0.000000 -0.597094
v 0.209125 0.000000 -0.600333
v 0.223641 0.000000 -0.602323
v 0.239000 0.000000 -0.603000
v 0.250704 0.000000 -0.602653
v 0.262796 0.000000 -0.601560
v 0.275250 0.000000 -0.599641
v 0.288037 0.000000 -0.596815
v 0.301130 0.000000 -0.593003
v 0.314500 0.000000 -0.588125
v 0.328120 0.000000 -0.582101
v 0.341963 0.000000 -0.574852
v 0.356000 0.000000 -0.566297
v 0.370204 0.000000 -0.556357
v 0.384546 0.000000 -0.544951
v 0.399000 0.000000 -0.532000
vn 0.0000 1.0000 0.0000
usemtl None
s off
f 14//1 12//1 13//1
f 14//1 11//1 12//1
f 14//1 10//1 11//1
f 15//1 10//1 14//1
f 15//1 9//1 10//1
f 15//1 8//1 9//1
f 16//1 8//1 15//1
f 16//1 7//1 8//1
f 16//1 6//1 7//1
f 17//1 6//1 16//1
f 17//1 5//1 6//1
f 17//1 4//1 5//1
f 18//1 4//1 17//1
f 18//1 3//1 4//1
f 18//1 2//1 3//1
f 19//1 2//1 18//1
f 19//1 1//1 2//1
f 19//1 114//1 1//1
f 114//1 115//1 1//1
f 115//1 116//1 1//1
f 116//1 117//1 1//1
f 117//1 118//1 1//1
f 118//1 119//1 1//1
f 119//1 120//1 1//1
f 120//1 121//1 1//1
f 121//1 122//1 1//1
f 20//1 112//1 19//1
f 112//1 113//1 19//1
f 113//1 114//1 19//1
f 21//1 110//1 20//1
f 110//1 111//1 20//1
f 111//1 112//1 20//1
f 22//1 109//1 21//1
f 109//1 110//1 21//1
f 22//1 108//1 109//1
f 22//1 107//1 108//1
f 22//1 106//1 107//1
f 22//1 105//1 106//1
f 22//1 104//1 105//1
f 23//1 104//1 22//1
f 23//1 103//1 104//1
f 23//1 102//1 103//1
f 23//1 101//1 102//1
f 24//1 101//1 23//1
f 24//1 100//1 101//1
f 24//1 99//1 100//1
f 25//1 99//1 24//1
f 25//1 98//1 99//1
f 25//1 97//1 98//1
f 26//1 97//1 25//1
f 26//1 96//1 97//1
f 26//1 95//1 96//1
f 27//1 95//1 26//1
f 27//1 94//1 95//1
f 28//1 94//1 27//1
f 28//1 93//1 94//1
f 28//1 92//1 93//1
f 29//1 92//1 28//1
f 29//1 91//1 92//1
f 30//1 91//1 29//1
f 30//1 90//1 91//1
f 31//1 90//1 30//1
f 31//1 89//1 90//1
f 32//1 89//1 31//1
f 32//1 88//1 89//1
f 33//1 88//1 32//1
f 34//1 88//1 33//1
f 34//1 87//1 88//1
f 35//1 87//1 34//1
f 36//1 87//1 35//1
f 36//1 86//1 87//1
f 37//1 86//1 36//1
f 62//1 60//1 61//1
f 37//1 85//1 86//1
f 38//1 85//1 37//1
f 62//1 59//1 60//1
f 39//1 85//1 38//1
f 39//1 84//1 85//1
f 62//1 58//1 59//1
f 40//1 84//1 39//1
f 62//1 57//1 58//1
f 41//1 84//1 40//1
f 42//1 84//1 41//1
f 42//1 83//1 84//1
f 62//1 56//1 57//1
f 43//1 83//1 42//1
f 62//1 55//1 56//1
f 44//1 83//1 43//1
f 62//1 54//1 55//1
f 44//1 82//1 83//1
f 45//1 82//1 44//1
f 62//1 53//1 54//1
f 46//1 82//1 45//1
f 62//1 52//1 53//1
f 47//1 82//1 46//1
f 62//1 51//1 52//1
f 48//1 82//1 47//1
f 62//1 50//1 51//1
f 48//1 81//1 82//1
f 49//1 81//1 48//1
f 62//1 49//1 50//1
f 62//1 81//1 49//1
f 62//1 80//1 81//1
f 63//1 80//1 62//1
f 64//1 80//1 63//1
f 64//1 79//1 80//1
f 65//1 79//1 64//1
f 65//1 78//1 79//1
f 66//1 78//1 65//1
f 67//1 78//1 66//1
f 67//1 77//1 78//1
f 68//1 77//1 67//1
f 69//1 77//1 68//1
f 69//1 76//1 77//1
f 70//1 76//1 69//1
f 71//1 76//1 70//1
f 71//1 75//1 76//1
f 72//1 75//1 71//1
f 73//1 75//1 72//1
f 73//1 74//1 75//1
