# Blender v2.78 (sub 0) OBJ File: ''
# www.blender.org
mtllib west.mtl
o Text_Mesh
v 1.041000 -0.000000 0.682000
v 0.944000 -0.000000 0.682000
v 0.758000 -0.000000 0.212000
v 0.568000 -0.000000 0.682000
v 0.475000 -0.000000 0.682000
v 0.286000 -0.000000 0.212000
v 0.098000 -0.000000 0.682000
v 0.000000 -0.000000 0.682000
v 0.276000 0.000000 -0.006000
v 0.295000 0.000000 -0.006000
v 0.521000 -0.000000 0.552000
v 0.745000 0.000000 -0.006000
v 0.764000 0.000000 -0.006000
vn 0.0000 -1.0000 -0.0000
usemtl None
s off
f 9//1 7//1 8//1
f 9//1 6//1 7//1
f 6//1 4//1 5//1
f 6//1 11//1 4//1
f 11//1 3//1 4//1
f 3//1 1//1 2//1
f 3//1 13//1 1//1
f 6//1 10//1 11//1
f 12//1 3//1 11//1
f 9//1 10//1 6//1
f 12//1 13//1 3//1
